<svg width="757" height="519" viewBox="0 0 757 519" fill="none" xmlns="http://www.w3.org/2000/svg">
<path d="M518.669 261.257L509.116 252.659L509.903 249.511L516.707 242.707L516.785 242.629L516.844 242.537L523.844 231.537L523.851 231.526L523.857 231.514L526.248 227.53L532.32 232.734L566.783 267.197L565.178 270.408L517.293 318.293L517.126 318.46L517.051 318.684L516.051 321.684L515.196 324.248L517.514 322.857L522.514 319.857L522.62 319.794L522.707 319.707L570.197 272.217L573.408 273.822L621.293 321.707L621.46 321.874L621.684 321.949L624.684 322.949L627.248 323.804L625.857 321.486L622.857 316.486L622.794 316.38L622.707 316.293L575.217 268.803L576.822 265.592L624.707 217.707L624.874 217.54L624.949 217.316L625.949 214.316L626.804 211.752L624.486 213.143L619.486 216.143L619.38 216.206L619.293 216.293L571.803 263.783L568.592 262.178L529.071 222.657L529.98 217.204L531.97 209.243L531.983 209.192L531.99 209.141L532.99 202.141L533 202.071V202V188V187.924L532.988 187.848L530.988 174.848L530.975 174.764L530.949 174.684L528.243 166.566L539.293 161.961L559.099 158H582.912L599.738 160.969L618.579 167.911L634.424 176.823L648.32 188.734L654 194.414V196V197H655H656.465L666.133 211.503L674.07 227.375L679.025 243.232L681 255.083V281.89L677.039 299.715L671.091 315.577L662.177 331.424L650.28 345.304L638.392 356.201L622.532 366.113L606.676 373.05L590.816 377.015L582.938 378H559.093L543.251 375.03L525.398 369.079L512.515 362.142L504 356.465V355V354.382L503.447 354.106L499.528 352.146L496 349.5V348V347.382L495.447 347.106L491.818 345.291L490.949 342.684L490.721 342H490H488.492L478.832 329.441L471.903 317.564L464.958 299.705L461.986 286.825L461 278.938V270.984L524.016 270L526.146 269.967L524.759 268.349L518.759 261.349L518.717 261.3L518.669 261.257Z" stroke="#a1a1a1" stroke-width="3"/>
<path d="M224 1H223V2V4V4.19258L223.072 4.37139L233.069 29.3662L245.064 60.3511L245.067 60.361L251.064 76.3511L251.082 76.4003L251.106 76.4472L255.106 84.4472L255.382 85H256H596H597V84V81V80.8L596.923 80.6154L591.928 68.6286L591.923 68.6154L577.934 33.644L577.928 33.6286L569.934 12.644L569.923 12.6147L569.91 12.5862L564.91 1.5862L564.644 1H564H224Z" stroke="#a1a1a1" stroke-width="3"/>
<path d="M302.652 324.063L302.647 324.065L258.056 340.91L257 340.382V233.003V233L257.993 89H349V306.333L337.633 311.069L302.652 324.063Z" stroke="#a1a1a1" stroke-width="3"/>
<path d="M406 139V140H405H404.382L404.106 140.553L402.15 144.464L395.211 153.386L395.15 153.464L395.106 153.553L387.106 169.553L387.067 169.63L387.042 169.713L384.042 179.713L384.021 179.784L384.01 179.859L383.01 186.859L383 186.929V187V202V202.093L383.017 202.184L386.017 218.184L386.036 218.288L386.077 218.385L391.077 230.385L391.114 230.474L391.168 230.555L399.168 242.555L399.223 242.637L399.293 242.707L404 247.414V249V249.618L404.553 249.894L408.464 251.85L417.386 258.789L417.464 258.85L417.553 258.894L431.036 265.636L432.002 282.059L432.005 282.117L432.015 282.174L435.012 299.158L435.908 305.428L434.77 305.997L355 305.012V89H596V129.279L593.899 129.98L586.124 129.008L586.062 129H586H557H556.917L556.836 129.014L538.836 132.014L538.78 132.023L538.725 132.038L524.725 136.038L524.669 136.054L524.615 136.077L513.038 140.901L509.521 139.143L498.588 131.191L498.521 131.143L498.447 131.106L484.447 124.106L484.37 124.067L484.287 124.042L474.287 121.042L474.216 121.021L474.141 121.01L467.141 120.01L467.071 120H467H447H446.866L446.737 120.035L435.737 123.035L435.682 123.05L435.629 123.072L420.629 129.072L420.506 129.121L420.4 129.2L408.667 138H407H406V139Z" stroke="#a1a1a1" stroke-width="3"/>
<path d="M662 169V169.618L662.553 169.894L666.388 171.812L677.216 183.624L688.131 199.5L697.07 218.374L702.034 233.263L705.01 247.151L706 258.045V278.917L702.026 302.758L698.067 314.638L690.113 332.533L682.184 345.419L673.241 356.348L664.308 366.274L653.389 375.208L642.468 383.15L627.59 391.085L608.721 398.037L594.829 401.014L579.934 403H563.068L541.21 400.019L524.346 395.059L506.484 387.121L491.602 377.2L478.678 366.264L466.769 354.355L459.836 344.451L451.875 331.513L447.919 323.602L440.962 304.717L436.994 286.864L436.042 268.77L439.041 268.021L456.109 270.865L459.009 292.135L459.019 292.21L459.041 292.282L464.041 309.282L464.058 309.343L464.084 309.401L471 325.209V327V328H472H473.451L480.156 338.537L480.204 338.612L480.265 338.678L492.265 351.678L492.327 351.745L492.4 351.8L496 354.5V356V356.618L496.553 356.894L500.505 358.87L514.459 367.841L514.505 367.87L514.553 367.894L528.553 374.894L528.632 374.934L528.718 374.959L545.718 379.959L545.769 379.974L545.821 379.984L556.821 381.984L556.91 382H557H586H586.11L586.217 381.976L604.217 377.976L604.285 377.961L604.351 377.936L620.351 371.936L620.423 371.909L620.49 371.872L636.49 362.872L636.561 362.832L636.625 362.781L646.625 354.781L646.668 354.746L646.707 354.707L657.707 343.707L657.753 343.661L657.793 343.61L667.793 330.61L667.845 330.542L667.885 330.466L677.885 311.466L677.933 311.374L677.962 311.275L683.962 290.275L683.98 290.209L683.99 290.141L684.99 283.141L685 283.071V283V252V251.883L684.973 251.768L679.973 230.768L679.952 230.681L679.916 230.599L672.916 214.599L672.893 214.546L672.864 214.496L665.864 202.496L665.82 202.421L665.763 202.354L654.763 189.354L654.737 189.322L654.707 189.293L644.707 179.293L644.645 179.231L644.573 179.181L634.573 172.181L634.552 172.166L634.53 172.152L626.53 167.152L626.47 167.115L626.406 167.086L608.406 159.086L608.313 159.045L608.212 159.023L585.212 154.023L585.107 154H585H557H556.896L556.794 154.021L537.794 158.021L537.738 158.033L537.684 158.051L526.431 161.802L521.848 154.47L521.821 154.427L521.789 154.386L515.331 146.083L517.554 143.86L533.282 137.962L547.155 134.989L567.05 133H577.945L595.817 134.986L614.692 139.953L627.576 144.908L645.455 154.841L657.388 163.791L662 167.481V169Z" stroke="#a1a1a1" stroke-width="3"/>
<path d="M248.394 83.7955L248.4 83.8L252 86.5V339.131L247.585 336.188L229.614 322.211L229.598 322.198L229.581 322.186L216 312.485V311V310.279L215.316 310.051L213 309.279V58.2808L215.562 58.9212L227.397 67.7978L227.4 67.8L248.394 83.7955Z" stroke="#a1a1a1" stroke-width="3"/>
<path d="M694 199.586L693.182 200.404L683.848 185.47L683.81 185.409L683.763 185.354L672.763 172.354L672.737 172.322L672.707 172.293L665.992 165.578L665 114.98L664.986 114.275L664.316 114.051L658.376 112.071L633.44 100.102L617.447 92.1056L617.433 92.0986L617.419 92.092L605 86.3602V85.694L687.35 54.9368L687.361 54.9328L687.371 54.9285L692.031 53.0645L694 53.7208V199.586Z" stroke="#a1a1a1" stroke-width="3"/>
<path d="M460.168 352.555L460.201 352.605L460.241 352.651L472.241 366.651L472.281 366.698L472.327 366.74L482.551 376.034L478.363 380.223L463.445 390.168L463.422 390.183L463.4 390.2L459.667 393H407.006H407L328 392.012V391.618L401.447 354.894L401.457 354.89L401.466 354.885L420.457 344.89L428.236 341H452.465L460.168 352.555Z" stroke="#a1a1a1" stroke-width="3"/>
<path d="M374.574 363.095L374.554 363.105L374.534 363.115L355.753 373H181V372.714L215.324 360.946L215.333 360.943L215.342 360.94L248.329 348.944L254.162 347H406.382L406.658 347.553L391.563 355.1L374.574 363.095Z" stroke="#a1a1a1" stroke-width="3"/>
<path d="M443.067 323.359L443.078 323.389L443.092 323.419L448.8 335.786L448.586 336H430H429.764L429.553 336.106L417.764 342H269.414L270.551 340.863L311.344 325.939L311.344 325.939L311.355 325.935L340.342 314.94L340.355 314.935L351.176 311H438.313L443.067 323.359Z" stroke="#a1a1a1" stroke-width="3"/>
<path d="M746 424H747.491L755.04 434.38L755.97 441.824L752.236 449.292L747.723 452H738.277L733.589 449.187L718.682 436.268L698.731 416.316L691.759 408.349L691.753 408.341L679.799 394.395L677.832 391.445L677.578 391.064L677.124 391.008L669.545 390.06L667 386.667V381.414L671.707 376.707L684.414 364H690.586L693.045 366.459L694.006 375.11L694.066 375.651L694.553 375.894L698.472 377.854L706 383.5V385V385.618L706.553 385.894L710.426 387.831L723.307 399.721L730.293 406.707L730.408 406.822L730.553 406.894L732 407.618V409V410H733H734.546L741.247 417.659L741.269 417.684L741.293 417.707L745 421.414V423V424H746Z" stroke="#a1a1a1" stroke-width="3"/>
<path d="M644.581 149.186L644.528 149.148L644.471 149.118L629.471 141.118L629.429 141.095L629.385 141.077L617.385 136.077L617.334 136.056L617.282 136.041L601 131.252V90.2198L604.681 90.9559L629.56 102.898L659.408 117.822L660.01 118.424L660.976 159H658.32L644.581 149.186Z" stroke="#a1a1a1" stroke-width="3"/>
<path d="M448 446L453 447L468 462L471 463L486 452L620 449L625 450L624 454L621 455L619 459L611 466L598 476L581 486L564 492L548 495H524L399 491L385 490L369 486L353 478L345 473V471L341 469L338 467V465H336L327 454L326 449L351 448L448 446ZM447 449L351 451L330 452L333 457L338 463L352 474L364 481L379 486L399 488L419 486L437 481L456 473L466 467V464L463 463V461L456 455L451 449H447ZM616 452L487 455L469 468L453 477L432 485L425 487V488L439 489L527 492H548L564 489L577 484L594 475L606 466L617 457V455H619L618 452H616Z" fill="#a1a1a1"/>
<path d="M109 53L112 54L123 98L141 173L140 178L131 192L129 195L130 199L141 208L144 213L157 267L175 341V346L171 345L155 334L145 325L143 324V322L139 320L137 316H135L127 305L119 291L113 275L106 239L94 175L90 152L85 127V103L88 89L92 79L98 67L105 58L109 53ZM109 58L104 63L96 77L90 93L88 103V126L92 142L97 155L104 168L111 178L119 188L122 192H124V194L127 193L136 179L138 176L136 165L127 127L116 82L110 58H109ZM95 158L96 169L104 212L110 243L116 275L122 291L130 304L138 314L152 328L168 340H171L169 330L155 271L140 211L130 203L126 198L120 193L119 191H117L115 187L103 171L96 158H95Z" fill="#a1a1a1"/>
<path d="M113 380L119 381L140 394L151 400L160 406L230 448L234 451V454L220 461L201 471L173 485L154 495L139 503L107 519L102 518L89 506L78 497L63 484L50 473L36 461L21 448L7 437L2 432L0 428L15 421L110 381L113 380ZM113 383L23 421L6 428L5 431L16 440L31 453L45 465H47V467L58 476L72 488L83 497L95 508L105 516L111 514L134 502L196 470L212 462L228 453L226 449L212 441L191 428L174 418L161 410L141 398L118 384L113 383Z" fill="#a1a1a1"/>
<path d="M660.658 60.0602L660.65 60.0634L660.641 60.0667L634.655 70.0612L614.67 77.0561L614.642 77.0657L614.615 77.0769L602.8 82H599.677L588.095 53.0456L588.618 52H682.586L682.45 52.136L660.658 60.0602Z" stroke="#a1a1a1" stroke-width="3"/>
<path d="M450 155H463L471 159L475 164L476 166V177L471 186L463 197L461 201L460 211L459 212H452L451 211V202L455 193L464 180L465 178V168L461 164H448L443 165L441 159L450 155Z" fill="#a1a1a1"/>
<path d="M452 222H459L462 226L461 233L459 235H452L449 232V225L452 222Z" fill="#a1a1a1"/>
<path d="M674 361L679 362L677 366L667 376L664 374L665 370L674 361Z" fill="white" fill-opacity="0.69"/>
</svg>
