<?xml version="1.0" encoding="UTF-8"?>
<svg id="Capa_2" data-name="Capa 2" xmlns="http://www.w3.org/2000/svg" viewBox="0 0 487.03 430.23">
  <defs>
    <style>
      .cls-1 {
        fill: #caefda;
      }

      .cls-2 {
        fill: #5fdd9d;
      }

      .cls-3 {
        stroke-dasharray: 10.12 10.12;
      }

      .cls-3, .cls-4, .cls-5 {
        fill: none;
        stroke: #efefef;
        stroke-miterlimit: 10;
      }

      .cls-3, .cls-5 {
        stroke-width: 4px;
      }

      .cls-4 {
        stroke-width: 6px;
      }

      .cls-6 {
        fill: #efefef;
      }
    </style>
  </defs>
  <g id="Folder">
    <g>
      <polyline class="cls-4" points="406.61 382.07 450.66 119.28 252.7 119.28 250.26 93.41 150.55 93.41 145.99 132.22 144.03 143.32"/>
      <g>
        <path class="cls-2" d="M56.71,111.57c-2.72-5.87-2.74-13,0-18.86,2.74,5.86,2.72,13,0,18.86h0Z"/>
        <path class="cls-2" d="M37.51,117.13c-5.25-3.66-8.91-9.95-9.43-16.33,5.26,3.64,8.89,9.96,9.43,16.33h0Z"/>
        <path class="cls-2" d="M23.65,131.54c-6.37-.54-12.69-4.17-16.33-9.43,6.38.52,12.68,4.18,16.33,9.43h0Z"/>
        <path class="cls-2" d="M18.86,150.95c-5.87,2.72-13,2.74-18.86,0,5.86-2.74,13-2.72,18.86,0h0Z"/>
        <path class="cls-2" d="M24.42,170.15c-3.66,5.25-9.95,8.91-16.33,9.43,3.64-5.26,9.96-8.89,16.33-9.43h0Z"/>
        <path class="cls-2" d="M38.83,184.01c-.54,6.37-4.17,12.69-9.43,16.33.52-6.38,4.18-12.68,9.43-16.33h0Z"/>
        <path class="cls-2" d="M58.24,188.8c2.72,5.87,2.74,13,0,18.86-2.74-5.86-2.72-13,0-18.86h0Z"/>
        <path class="cls-2" d="M77.44,183.24c5.25,3.66,8.91,9.95,9.43,16.33-5.26-3.64-8.89-9.96-9.43-16.33h0Z"/>
        <path class="cls-2" d="M91.3,168.83c6.37.54,12.69,4.17,16.33,9.43-6.38-.52-12.68-4.18-16.33-9.43h0Z"/>
        <path class="cls-2" d="M96.09,149.42c5.87-2.72,13-2.74,18.86,0-5.86,2.74-13,2.72-18.86,0h0Z"/>
        <path class="cls-2" d="M90.53,130.22c3.66-5.25,9.95-8.91,16.33-9.43-3.64,5.26-9.96,8.89-16.33,9.43h0Z"/>
        <path class="cls-2" d="M76.12,116.36c.54-6.37,4.17-12.69,9.43-16.33-.52,6.38-4.18,12.68-9.43,16.33h0Z"/>
      </g>
      <polygon class="cls-4" points="406.16 382.07 100.83 382.07 57.47 141.29 362.81 141.29 406.16 382.07"/>
      <g>
        <circle class="cls-2" cx="163.28" cy="275.79" r="12.69"/>
        <circle class="cls-2" cx="263.61" cy="275.79" r="12.69"/>
        <path class="cls-2" d="M231.67,290.51l-.7-1.33c-.06-.12-6.62-12.24-19.81-12.24-12.03,0-14.96,11.41-15.08,11.9l-.36,1.45-2.91-.7.35-1.46c.03-.14,3.57-14.19,18-14.19s22.17,13.28,22.47,13.85l.7,1.33-2.66,1.39Z"/>
      </g>
    </g>
    <g>
      <polygon class="cls-1" points="436.31 430.23 326.03 408.7 353.66 267.13 435.54 283.11 458.68 315.63 436.31 430.23"/>
      <polygon class="cls-2" points="435.54 283.11 458.68 315.63 430.28 310.09 435.54 283.11"/>
      <path class="cls-2" d="M381.06,369.03l.4-3.25c.6-6.8,4.28-13.62,11.92-19.77,6.86-5.41,10.9-9.6,12.02-15.14,1.26-6.28-1.83-11.26-9.57-12.95-4.43-.89-9.66-.41-13.21,1.31l-1.39-8.35c4.66-2.14,12.08-2.7,18.6-1.38,14.16,2.85,18.81,12.88,16.92,22.24-1.69,8.38-7.58,13.47-14.9,19.3-6.71,5.31-9.77,10.34-10.66,16.69l-.52,3.23-9.61-1.93ZM374.88,385.72c.92-4.56,4.64-7.14,8.95-6.27,4.31.87,6.62,4.66,5.7,9.22-.87,4.31-4.37,7.07-8.93,6.15-4.31-.87-6.6-4.79-5.73-9.1Z"/>
    </g>
  </g>
  <g id="Fly">
    <g>
      <g>
        <path class="cls-5" d="M387.73,244.85c1.63-.35,3.24-.78,4.83-1.28"/>
        <path class="cls-3" d="M401.87,239.62c11.38-6.15,19.98-16.22,20.96-27.62,2.66-31-35.1-48.12-31.2-83.95,3.72-34.17,39.56-36.61,53.93-31.89,15.87,5.22,10.43,20.47-3.94,18.5-24.91-3.41-40.57-30.49-28.74-61.21,7.3-18.96,23.6-28.16,34.1-32.28"/>
        <path class="cls-5" d="M451.76,19.5c2.98-.93,4.83-1.28,4.83-1.28"/>
      </g>
      <g>
        <path class="cls-2" d="M483.11,8.39c-2.55-7.9-19.63-5.06-16.3,5.26,3.33,10.33,18.85,2.64,16.3-5.26Z"/>
        <path class="cls-6" d="M457.53,5.21c.13-3.47,4.95-6.13,11.77-4.9,6.82,1.23,13.24,5.82,13.24,5.82,0,0-6.74,4.12-13.63,4.85-6.89.73-11.5-2.29-11.37-5.77Z"/>
        <path class="cls-6" d="M464.02,25.78c2.13,2.74,7.6,2.08,12.41-2.9,4.81-4.98,7.33-12.46,7.33-12.46,0,0-7.88.6-13.89,4.04-6.01,3.44-7.99,8.58-5.85,11.33Z"/>
        <path class="cls-2" d="M483.11,8.39c-1.57.51-3.26-.36-3.77-1.93-.51-1.57.36-3.26,1.93-3.77s3.26.36,3.77,1.93c.51,1.57-.36,3.26-1.93,3.77Z"/>
        <path class="cls-2" d="M484.95,14.1c-1.57.51-3.26-.36-3.77-1.93-.51-1.57.36-3.26,1.93-3.77s3.26.36,3.77,1.93c.51,1.57-.36,3.26-1.93,3.77Z"/>
      </g>
    </g>
  </g>
</svg>