<?xml version="1.0" encoding="UTF-8"?>
<svg id="Capa_2" data-name="Capa 2" xmlns="http://www.w3.org/2000/svg" viewBox="0 0 130.89 157.72">
  <defs>
    <style>
      .cls-1 {
        fill: #5fdd9d;
      }
    </style>
  </defs>
  <g id="Capa_1-2" data-name="Capa 1">
    <path class="cls-1" d="M55.69,157.71h-26.28c-5.44,0-9.86-4.41-9.86-9.86s4.41-9.86,9.86-9.86c5.47-.03,10.89-1.13,15.94-3.24-15.13-5.68-27.88-16.34-36.14-30.23C-.54,88.26-2.66,68.53,3.39,50.56,13.89,19.96,42.85-.43,75.2,0h26.28c5.44,0,9.86,4.41,9.86,9.86s-4.41,9.86-9.86,9.86c-5.47.03-10.89,1.13-15.94,3.24,15.13,5.67,27.88,16.33,36.14,30.23,9.74,16.27,11.87,35.99,5.82,53.97-10.5,30.6-39.47,50.99-71.81,50.56ZM59.09,21.95c-17.36,4.72-31.23,17.76-37.02,34.79-4.23,12.58-2.74,26.39,4.09,37.77,7.31,12.38,19.55,21.07,33.65,23.9,8.05,1.57,13.38,9.29,12,17.37,17.35-4.73,31.22-17.77,37-34.79,4.23-12.58,2.73-26.38-4.09-37.77-7.31-12.38-19.54-21.07-33.63-23.9h0c-8.05-1.57-13.37-9.28-12-17.37h0ZM65.44,98.57c10.89,0,19.71-8.83,19.71-19.71s-8.83-19.71-19.71-19.71-19.71,8.83-19.71,19.71,8.83,19.71,19.71,19.71Z"/>
  </g>
</svg>