<?xml version="1.0" encoding="UTF-8"?>
<svg id="Capa_2" data-name="Capa 2" xmlns="http://www.w3.org/2000/svg" viewBox="0 0 1037.84 157.72">
  <defs>
    <style>
      .cls-1 {
        fill: #5fdd9d;
      }
    </style>
  </defs>
  <g id="Capa_1-2" data-name="Capa 1">
    <g>
      <path class="cls-1" d="M182.54,155.72c-5.34,0-7.69-2.35-7.69-7.69v-24.98c0-5.34,2.35-7.69,7.69-7.69h57.43c3.63,0,5.55-2.78,5.55-6.19,0-4.91-1.92-6.83-5.55-7.26l-32.02-4.48c-20.07-2.99-33.09-11.53-33.09-35.44v-22.42c0-24.34,16.44-37.58,44.19-37.58h59.78c5.34,0,7.69,2.35,7.69,7.69v25.41c0,5.34-2.35,7.69-7.69,7.69h-49.75c-3.63,0-5.76,2.56-5.76,6.4s2.13,6.41,5.76,6.83l31.81,4.27c20.07,2.99,33.31,11.53,33.31,35.44v22.42c0,24.34-16.65,37.58-44.19,37.58h-67.47Z"/>
      <path class="cls-1" d="M325.16,155.72c-5.34,0-7.69-2.35-7.69-7.69V9.68c0-5.34,2.35-7.69,7.69-7.69h65.33c38.86,0,50.39,16.87,50.39,41.63v27.33c0,24.77-11.53,41.63-50.39,41.63h-24.55v35.44c0,5.34-2.35,7.69-7.69,7.69h-33.09ZM365.52,74.16h19.21c8.33,0,10.03-4.91,10.03-10.46v-11.32c0-5.55-1.71-10.46-10.03-10.46h-19.21v32.24Z"/>
      <path class="cls-1" d="M470.77,155.72c-5.34,0-7.69-2.35-7.69-7.69V9.68c0-5.34,2.35-7.69,7.69-7.69h33.09c5.34,0,7.69,2.35,7.69,7.69v46.33h35.66V9.68c0-5.34,2.35-7.69,7.69-7.69h33.09c5.34,0,7.69,2.35,7.69,7.69v138.35c0,5.34-2.35,7.69-7.69,7.69h-33.09c-5.34,0-7.69-2.35-7.69-7.69v-47.4h-35.66v47.4c0,5.34-2.35,7.69-7.69,7.69h-33.09Z"/>
      <path class="cls-1" d="M632.82,155.72c-5.34,0-7.69-2.35-7.69-7.69V9.68c0-5.34,2.35-7.69,7.69-7.69h99.06c5.34,0,7.69,2.35,7.69,7.69v24.98c0,5.34-2.35,7.69-7.69,7.69h-58.93v16.44h41.63c5.34,0,7.69,2.35,7.69,7.69v22.84c0,5.34-2.35,7.69-7.69,7.69h-41.63v18.36h58.93c5.34,0,7.69,2.35,7.69,7.69v24.98c0,5.34-2.35,7.69-7.69,7.69h-99.06Z"/>
      <path class="cls-1" d="M772.45,155.72c-5.34,0-7.69-2.35-7.69-7.69V9.68c0-5.34,2.35-7.69,7.69-7.69h71.1c32.03,0,42.06,14.52,42.06,35.65v9.82c0,11.96-2.99,20.5-11.96,24.34,15.59,1.71,25.83,13.02,25.83,30.96v45.26c0,5.34-2.35,7.69-7.69,7.69h-33.09c-5.34,0-7.69-2.35-7.69-7.69v-32.67c0-6.41-2.14-9.18-8.11-9.18h-29.89v41.85c0,5.34-2.35,7.69-7.69,7.69h-32.88ZM813.02,67.76h16.01c7.47,0,9.39-4.27,9.39-10.03v-7.26c0-5.76-1.92-10.03-9.39-10.03h-16.01v27.33Z"/>
      <path class="cls-1" d="M931.09,155.72c-5.34,0-7.69-2.35-7.69-7.69V9.68c0-5.34,2.35-7.69,7.69-7.69h99.06c5.34,0,7.69,2.35,7.69,7.69v24.98c0,5.34-2.35,7.69-7.69,7.69h-58.93v16.44h41.63c5.34,0,7.69,2.35,7.69,7.69v22.84c0,5.34-2.35,7.69-7.69,7.69h-41.63v18.36h58.93c5.34,0,7.69,2.35,7.69,7.69v24.98c0,5.34-2.35,7.69-7.69,7.69h-99.06Z"/>
    </g>
    <path class="cls-1" d="M55.69,157.71h-26.28c-5.44,0-9.86-4.41-9.86-9.86s4.41-9.86,9.86-9.86c5.47-.03,10.89-1.13,15.94-3.24-15.13-5.68-27.88-16.34-36.14-30.23C-.54,88.26-2.66,68.53,3.39,50.56,13.89,19.96,42.85-.43,75.2,0h26.28c5.44,0,9.86,4.41,9.86,9.86s-4.41,9.86-9.86,9.86c-5.47.03-10.89,1.13-15.94,3.24,15.13,5.67,27.88,16.33,36.14,30.23,9.74,16.27,11.87,35.99,5.82,53.97-10.5,30.6-39.47,50.99-71.81,50.56ZM59.09,21.95c-17.36,4.72-31.23,17.76-37.02,34.79-4.23,12.58-2.74,26.39,4.09,37.77,7.31,12.38,19.55,21.07,33.65,23.9,8.05,1.57,13.38,9.29,12,17.37,17.35-4.73,31.22-17.77,37-34.79,4.23-12.58,2.73-26.38-4.09-37.77-7.31-12.38-19.54-21.07-33.63-23.9h0c-8.05-1.57-13.37-9.28-12-17.37h0ZM65.44,98.57c10.89,0,19.71-8.83,19.71-19.71s-8.83-19.71-19.71-19.71-19.71,8.83-19.71,19.71,8.83,19.71,19.71,19.71Z"/>
  </g>
</svg>