<?xml version="1.0" encoding="UTF-8"?>
<svg id="Capa_2" data-name="Capa 2" xmlns="http://www.w3.org/2000/svg" viewBox="0 0 862.98 153.72">
  <defs>
    <style>
      .cls-1 {
        fill: #5fdd9d;
      }
    </style>
  </defs>
  <g id="Capa_1-2" data-name="Capa 1">
    <g>
      <path class="cls-1" d="M7.69,153.72c-5.34,0-7.69-2.35-7.69-7.69v-24.98c0-5.34,2.35-7.69,7.69-7.69h57.43c3.63,0,5.55-2.78,5.55-6.19,0-4.91-1.92-6.83-5.55-7.26l-32.02-4.48C13.02,92.45,0,83.91,0,59.99v-22.42C0,13.24,16.44,0,44.19,0h59.78c5.34,0,7.69,2.35,7.69,7.69v25.41c0,5.34-2.35,7.69-7.69,7.69h-49.75c-3.63,0-5.76,2.56-5.76,6.4s2.13,6.41,5.76,6.83l31.81,4.27c20.07,2.99,33.31,11.53,33.31,35.44v22.42c0,24.34-16.65,37.58-44.19,37.58H7.69Z"/>
      <path class="cls-1" d="M150.31,153.72c-5.34,0-7.69-2.35-7.69-7.69V7.69c0-5.34,2.35-7.69,7.69-7.69h65.33c38.86,0,50.39,16.87,50.39,41.63v27.33c0,24.77-11.53,41.63-50.39,41.63h-24.55v35.44c0,5.34-2.35,7.69-7.69,7.69h-33.09ZM190.66,72.16h19.21c8.33,0,10.03-4.91,10.03-10.46v-11.32c0-5.55-1.71-10.46-10.03-10.46h-19.21v32.24Z"/>
      <path class="cls-1" d="M295.92,153.72c-5.34,0-7.69-2.35-7.69-7.69V7.69c0-5.34,2.35-7.69,7.69-7.69h33.09c5.34,0,7.69,2.35,7.69,7.69v46.33h35.66V7.69c0-5.34,2.35-7.69,7.69-7.69h33.09c5.34,0,7.69,2.35,7.69,7.69v138.35c0,5.34-2.35,7.69-7.69,7.69h-33.09c-5.34,0-7.69-2.35-7.69-7.69v-47.4h-35.66v47.4c0,5.34-2.35,7.69-7.69,7.69h-33.09Z"/>
      <path class="cls-1" d="M457.96,153.72c-5.34,0-7.69-2.35-7.69-7.69V7.69c0-5.34,2.35-7.69,7.69-7.69h99.06c5.34,0,7.69,2.35,7.69,7.69v24.98c0,5.34-2.35,7.69-7.69,7.69h-58.93v16.44h41.63c5.34,0,7.69,2.35,7.69,7.69v22.84c0,5.34-2.35,7.69-7.69,7.69h-41.63v18.36h58.93c5.34,0,7.69,2.35,7.69,7.69v24.98c0,5.34-2.35,7.69-7.69,7.69h-99.06Z"/>
      <path class="cls-1" d="M597.6,153.72c-5.34,0-7.69-2.35-7.69-7.69V7.69c0-5.34,2.35-7.69,7.69-7.69h71.1c32.03,0,42.06,14.52,42.06,35.65v9.82c0,11.96-2.99,20.5-11.96,24.34,15.59,1.71,25.83,13.02,25.83,30.96v45.26c0,5.34-2.35,7.69-7.69,7.69h-33.09c-5.34,0-7.69-2.35-7.69-7.69v-32.67c0-6.41-2.14-9.18-8.11-9.18h-29.89v41.85c0,5.34-2.35,7.69-7.69,7.69h-32.88ZM638.16,65.76h16.01c7.47,0,9.39-4.27,9.39-10.03v-7.26c0-5.76-1.92-10.03-9.39-10.03h-16.01v27.33Z"/>
      <path class="cls-1" d="M756.23,153.72c-5.34,0-7.69-2.35-7.69-7.69V7.69c0-5.34,2.35-7.69,7.69-7.69h99.06c5.34,0,7.69,2.35,7.69,7.69v24.98c0,5.34-2.35,7.69-7.69,7.69h-58.93v16.44h41.63c5.34,0,7.69,2.35,7.69,7.69v22.84c0,5.34-2.35,7.69-7.69,7.69h-41.63v18.36h58.93c5.34,0,7.69,2.35,7.69,7.69v24.98c0,5.34-2.35,7.69-7.69,7.69h-99.06Z"/>
    </g>
  </g>
</svg>